<svg width="64" height="64" viewBox="0 0 64 64" fill="none" xmlns="http://www.w3.org/2000/svg">
<rect width="64" height="64" rx="8" fill="#F0F7FF"/>
<path d="M32 40.9375C35.797 40.9375 38.875 37.8595 38.875 34.0625C38.875 30.2655 35.797 27.1875 32 27.1875C28.203 27.1875 25.125 30.2655 25.125 34.0625C25.125 37.8595 28.203 40.9375 32 40.9375Z" stroke="#0075FD" stroke-width="1.5" stroke-linecap="round" stroke-linejoin="round"/>
<path d="M43.6875 29.9375C45.2889 29.9348 46.8688 30.3064 48.3012 31.0226C49.7336 31.7388 50.9788 32.7798 51.9375 34.0625" stroke="#0075FD" stroke-width="1.5" stroke-linecap="round" stroke-linejoin="round"/>
<path d="M12.0625 34.0625C13.0212 32.7798 14.2664 31.7388 15.6988 31.0226C17.1312 30.3064 18.7111 29.9348 20.3125 29.9375" stroke="#0075FD" stroke-width="1.5" stroke-linecap="round" stroke-linejoin="round"/>
<path d="M22.0996 47.125C23.0051 45.2706 24.4132 43.7078 26.1635 42.6147C27.9138 41.5215 29.936 40.9419 31.9996 40.9419C34.0633 40.9419 36.0854 41.5215 37.8357 42.6147C39.586 43.7078 40.9941 45.2706 41.8996 47.125" stroke="#0075FD" stroke-width="1.5" stroke-linecap="round" stroke-linejoin="round"/>
<path d="M20.3122 29.9375C19.2683 29.9386 18.2457 29.6425 17.3638 29.084C16.4819 28.5254 15.7772 27.7274 15.3319 26.7832C14.8867 25.839 14.7194 24.7876 14.8495 23.7519C14.9797 22.7161 15.4019 21.7388 16.0668 20.9341C16.7318 20.1294 17.612 19.5305 18.6047 19.2075C19.5973 18.8844 20.6614 18.8506 21.6726 19.1098C22.6838 19.3691 23.6003 19.9108 24.3151 20.6716C25.0299 21.4324 25.5134 22.3809 25.7091 23.4062" stroke="#0075FD" stroke-width="1.5" stroke-linecap="round" stroke-linejoin="round"/>
<path d="M38.291 23.4062C38.4867 22.3809 38.9702 21.4324 39.685 20.6716C40.3998 19.9108 41.3163 19.3691 42.3275 19.1098C43.3387 18.8506 44.4028 18.8844 45.3954 19.2075C46.3881 19.5305 47.2683 20.1294 47.9333 20.9341C48.5982 21.7388 49.0204 22.7161 49.1506 23.7519C49.2807 24.7876 49.1134 25.839 48.6682 26.7832C48.2229 27.7274 47.5182 28.5254 46.6363 29.084C45.7544 29.6425 44.7318 29.9386 43.6879 29.9375" stroke="#0075FD" stroke-width="1.5" stroke-linecap="round" stroke-linejoin="round"/>
</svg>
