<svg width="48" height="48" viewBox="0 0 48 48" fill="none" xmlns="http://www.w3.org/2000/svg">
<rect width="48" height="48" rx="8" fill="#E9F8F3"/>
<path d="M22.0701 22.9216C22.0701 22.9216 23.9624 22.783 23.9624 20.5927C23.9624 18.4022 22.4142 17.3333 20.4532 17.3333H14V29.5738H20.4532C20.4532 29.5738 24.3926 29.6966 24.3926 25.961C24.3926 25.961 24.5643 22.9216 22.0701 22.9216ZM19.9887 19.5089H20.4532C20.4532 19.5089 21.3303 19.5089 21.3303 20.7824C21.3303 22.0559 20.8145 22.2405 20.2293 22.2405H16.8433V19.5089H19.9887ZM20.2708 27.3983H16.8433V24.1271H20.4532C20.4532 24.1271 21.7605 24.1102 21.7605 25.8082C21.7605 27.2399 20.784 27.3875 20.2708 27.3983ZM29.6465 20.4476C24.8774 20.4476 24.8816 25.1508 24.8816 25.1508C24.8816 25.1508 24.5544 29.8299 29.6465 29.8299C29.6465 29.8299 33.8898 30.0691 33.8898 26.5749H31.7075C31.7075 26.5749 31.7803 27.8908 29.7192 27.8908C29.7192 27.8908 27.5366 28.0352 27.5366 25.7612H33.9626C33.9626 25.7612 34.6657 20.4476 29.6465 20.4476ZM27.5126 24.1271C27.5126 24.1271 27.7791 22.2405 29.6949 22.2405C31.6104 22.2405 31.5864 24.1271 31.5864 24.1271H27.5126ZM32.0948 19.5617H26.9783V18.0544H32.0948V19.5617Z" fill="#4DC39E"/>
</svg>
