<svg width="48" height="48" viewBox="0 0 48 48" fill="none" xmlns="http://www.w3.org/2000/svg">
<rect width="48" height="48" rx="8" fill="#E9F8F3"/>
<g clip-path="url(#clip0_9_5612)">
<path d="M14 16.323C14 15.6496 14.2252 15.094 14.6757 14.6563C15.1261 14.2186 15.7117 13.9998 16.4324 13.9998C17.1403 13.9998 17.713 14.2152 18.1506 14.6462C18.601 15.0907 18.8263 15.6698 18.8263 16.3836C18.8263 17.0301 18.6075 17.5688 18.1699 17.9997C17.7194 18.4442 17.1274 18.6664 16.3938 18.6664H16.3745C15.6667 18.6664 15.094 18.4442 14.6564 17.9997C14.2188 17.5553 14 16.9964 14 16.323ZM14.251 33.9997V20.5048H18.5367V33.9997H14.251ZM20.9112 33.9997H25.1969V26.4644C25.1969 25.993 25.2484 25.6294 25.3514 25.3735C25.5315 24.9156 25.805 24.5283 26.1718 24.2119C26.5386 23.8954 26.9987 23.7371 27.5521 23.7371C28.9936 23.7371 29.7143 24.7539 29.7143 26.7876V33.9997H34V26.2624C34 24.2691 33.5496 22.7573 32.6486 21.727C31.7477 20.6967 30.5573 20.1816 29.0772 20.1816C27.417 20.1816 26.1236 20.929 25.1969 22.424V22.4644H25.1776L25.1969 22.424V20.5048H20.9112C20.9369 20.9358 20.9498 22.2758 20.9498 24.525C20.9498 26.7741 20.9369 29.9324 20.9112 33.9997Z" fill="#4DC39E"/>
</g>
<defs>
<clipPath id="clip0_9_5612">
<rect width="20" height="20" fill="white" transform="translate(14 14)"/>
</clipPath>
</defs>
</svg>
