<svg width="36" height="36" viewBox="0 0 36 36" fill="none" xmlns="http://www.w3.org/2000/svg">
<path d="M19.5052 24.6797L16.8052 32.0063C16.7253 32.2216 16.5814 32.4073 16.3929 32.5384C16.2043 32.6695 15.9802 32.7398 15.7505 32.7398C15.5209 32.7398 15.2967 32.6695 15.1082 32.5384C14.9196 32.4073 14.7757 32.2216 14.6958 32.0063L11.9958 24.6797C11.9388 24.5251 11.849 24.3846 11.7324 24.2681C11.6159 24.1516 11.4755 24.0617 11.3208 24.0047L3.99426 21.3047C3.77896 21.2248 3.59328 21.0809 3.46215 20.8924C3.33103 20.7038 3.26074 20.4797 3.26074 20.25C3.26074 20.0204 3.33103 19.7962 3.46215 19.6077C3.59328 19.4191 3.77896 19.2752 3.99426 19.1953L11.3208 16.4953C11.4755 16.4384 11.6159 16.3485 11.7324 16.232C11.849 16.1154 11.9388 15.975 11.9958 15.8203L14.6958 8.49377C14.7757 8.27847 14.9196 8.09279 15.1082 7.96166C15.2967 7.83054 15.5209 7.76025 15.7505 7.76025C15.9802 7.76025 16.2043 7.83054 16.3929 7.96166C16.5814 8.09279 16.7253 8.27847 16.8052 8.49377L19.5052 15.8203C19.5622 15.975 19.652 16.1154 19.7686 16.232C19.8851 16.3485 20.0256 16.4384 20.1802 16.4953L27.5068 19.1953C27.7221 19.2752 27.9077 19.4191 28.0389 19.6077C28.17 19.7962 28.2403 20.0204 28.2403 20.25C28.2403 20.4797 28.17 20.7038 28.0389 20.8924C27.9077 21.0809 27.7221 21.2248 27.5068 21.3047L20.1802 24.0047C20.0256 24.0617 19.8851 24.1516 19.7686 24.2681C19.652 24.3846 19.5622 24.5251 19.5052 24.6797Z" fill="#1A906B"/>
<path d="M24.75 2.25V9" stroke="#1A906B" stroke-width="2.25" stroke-linecap="round" stroke-linejoin="round"/>
<path d="M28.125 5.625H21.375" stroke="#1A906B" stroke-width="2.25" stroke-linecap="round" stroke-linejoin="round"/>
<path d="M31.5 10.125V14.625" stroke="#1A906B" stroke-width="2.25" stroke-linecap="round" stroke-linejoin="round"/>
<path d="M33.75 12.375H29.25" stroke="#1A906B" stroke-width="2.25" stroke-linecap="round" stroke-linejoin="round"/>
</svg>
