<svg width="50" height="50" viewBox="0 0 50 50" fill="none" xmlns="http://www.w3.org/2000/svg">
<path d="M30.9925 29.426L29.5468 40.3889C29.5103 40.6524 29.394 40.8984 29.2136 41.0938C29.0331 41.2893 28.7972 41.4248 28.5375 41.4823C28.2777 41.5397 28.0067 41.5163 27.7606 41.4152C27.5146 41.314 27.3054 41.14 27.1612 40.9165L21.2273 31.5856C21.1242 31.425 20.9874 31.2886 20.8265 31.186C20.6655 31.0833 20.4842 31.0168 20.2951 30.9911L9.33214 29.5454C9.06865 29.5089 8.82266 29.3926 8.6272 29.2121C8.43175 29.0317 8.29619 28.7958 8.23875 28.5361C8.18131 28.2763 8.20473 28.0052 8.30587 27.7592C8.40701 27.5132 8.58102 27.304 8.80453 27.1598L18.1354 21.2259C18.296 21.1228 18.4324 20.986 18.535 20.8251C18.6377 20.6641 18.7042 20.4828 18.73 20.2936L20.1756 9.33071C20.2122 9.06723 20.3285 8.82123 20.5089 8.62578C20.6893 8.43032 20.9253 8.29477 21.185 8.23733C21.4447 8.17988 21.7158 8.20331 21.9618 8.30444C22.2079 8.40558 22.417 8.5796 22.5613 8.8031L28.4952 18.134C28.5983 18.2946 28.735 18.431 28.896 18.5336C29.0569 18.6363 29.2382 18.7028 29.4274 18.7285L40.3903 20.1742C40.6538 20.2107 40.8998 20.327 41.0953 20.5075C41.2907 20.6879 41.4263 20.9238 41.4837 21.1836C41.5412 21.4433 41.5177 21.7144 41.4166 21.9604C41.3155 22.2064 41.1414 22.4156 40.9179 22.5598L31.5871 28.4937C31.4264 28.5969 31.2901 28.7336 31.1874 28.8946C31.0848 29.0555 31.0183 29.2368 30.9925 29.426Z" fill="#FFC27A"/>
</svg>
