<svg width="24" height="25" viewBox="0 0 24 25" fill="none" xmlns="http://www.w3.org/2000/svg">
<path d="M12.4123 18.4001L17.1373 21.4001C17.7466 21.7845 18.4966 21.2126 18.3185 20.5095L16.9498 15.1282C16.9127 14.9791 16.9186 14.8225 16.9667 14.6765C17.0148 14.5306 17.1032 14.4012 17.2216 14.3032L21.4591 10.7689C22.0123 10.3095 21.731 9.38137 21.0091 9.3345L15.4779 8.97825C15.327 8.96946 15.1819 8.91691 15.0603 8.82701C14.9388 8.7371 14.8461 8.61374 14.7935 8.472L12.731 3.27825C12.6764 3.12815 12.5769 2.9985 12.4461 2.90688C12.3153 2.81526 12.1595 2.76611 11.9998 2.76611C11.84 2.76611 11.6842 2.81526 11.5534 2.90688C11.4226 2.9985 11.3231 3.12815 11.2685 3.27825L9.206 8.472C9.15344 8.61374 9.06072 8.7371 8.93918 8.82701C8.81764 8.91691 8.67255 8.96946 8.52163 8.97825L2.99038 9.3345C2.2685 9.38137 1.98725 10.3095 2.54038 10.7689L6.77788 14.3032C6.89632 14.4012 6.98468 14.5306 7.03278 14.6765C7.08088 14.8225 7.08676 14.9791 7.04975 15.1282L5.78413 20.1157C5.5685 20.9595 6.4685 21.6439 7.19038 21.1845L11.5873 18.4001C11.7106 18.3217 11.8536 18.2801 11.9998 18.2801C12.1459 18.2801 12.289 18.3217 12.4123 18.4001Z" fill="#20B486" stroke="#20B486" stroke-width="1.5" stroke-linecap="round" stroke-linejoin="round"/>
</svg>
